<?xml version="1.0" standalone="no"?>
<!DOCTYPE svg PUBLIC "-//W3C//DTD SVG 20010904//EN"
 "http://www.w3.org/TR/2001/REC-SVG-20010904/DTD/svg10.dtd">
<svg version="1.0" xmlns="http://www.w3.org/2000/svg"
 width="3961.000000pt" height="3961.000000pt" viewBox="0 0 3961.000000 3961.000000"
 preserveAspectRatio="xMidYMid meet">
<metadata>
Created by potrace 1.14, written by Peter Selinger 2001-2017
</metadata>
<g transform="translate(0.000000,3961.000000) scale(0.100000,-0.100000)"
fill="#000000" stroke="none">
<path d="M19268 39585 c-2 -1 -59 -6 -128 -10 -69 -4 -138 -8 -155 -10 -54 -5
-208 -15 -330 -21 -139 -6 -254 -15 -375 -29 -19 -2 -64 -7 -100 -10 -36 -3
-72 -8 -80 -10 -8 -2 -49 -7 -90 -10 -41 -4 -86 -8 -100 -10 -14 -3 -69 -7
-122 -10 -53 -2 -116 -12 -140 -20 -24 -9 -81 -18 -126 -21 -46 -2 -107 -11
-135 -19 -29 -8 -81 -15 -117 -16 -36 -1 -81 -8 -101 -16 -20 -8 -74 -15 -120
-17 -46 -2 -97 -9 -114 -16 -16 -7 -62 -14 -102 -16 -39 -1 -85 -10 -101 -18
-16 -8 -51 -18 -78 -21 -107 -13 -189 -28 -221 -42 -19 -7 -53 -16 -76 -19
-160 -20 -231 -34 -397 -77 -74 -19 -155 -37 -180 -41 -83 -10 -161 -28 -276
-61 -47 -14 -90 -22 -95 -19 -5 3 -29 -3 -52 -14 -39 -19 -74 -31 -101 -36
-141 -27 -379 -92 -444 -122 -29 -13 -60 -24 -70 -24 -38 0 -334 -84 -514
-146 -106 -36 -214 -72 -241 -79 -26 -8 -52 -17 -59 -21 -6 -4 -32 -9 -57 -10
-25 -1 -73 -12 -106 -23 -33 -12 -67 -23 -75 -26 -16 -4 -140 -49 -175 -64
-106 -44 -134 -54 -160 -59 -16 -3 -39 -11 -50 -18 -11 -6 -40 -15 -65 -19
-25 -4 -107 -31 -182 -61 -76 -30 -199 -75 -275 -101 -163 -54 -263 -93 -341
-132 -31 -16 -106 -46 -167 -66 -153 -52 -351 -133 -487 -199 -64 -31 -118
-56 -122 -56 -3 0 -44 -18 -90 -40 -46 -22 -90 -40 -98 -40 -8 0 -18 -4 -24
-8 -5 -5 -34 -19 -64 -32 -222 -92 -555 -254 -829 -404 -46 -25 -93 -48 -105
-52 -30 -9 -125 -63 -166 -94 -19 -15 -72 -44 -117 -64 -106 -48 -177 -86
-193 -107 -3 -3 -40 -24 -82 -47 -80 -42 -178 -111 -178 -123 0 -4 -16 -13
-35 -19 -19 -6 -61 -31 -93 -55 -31 -23 -102 -69 -157 -100 -55 -32 -156 -94
-225 -138 -69 -43 -134 -85 -145 -91 -11 -6 -22 -13 -25 -16 -3 -3 -30 -21
-60 -40 -30 -19 -91 -57 -135 -85 -44 -29 -98 -60 -120 -70 -69 -33 -154 -84
-330 -200 -93 -61 -206 -133 -249 -160 -68 -42 -123 -88 -236 -200 -14 -14
-32 -25 -40 -25 -9 0 -47 -24 -85 -54 -39 -30 -95 -72 -125 -92 -30 -21 -75
-59 -100 -84 -25 -26 -83 -75 -130 -110 -99 -74 -274 -214 -310 -248 -14 -13
-53 -40 -87 -60 -35 -20 -63 -40 -63 -44 0 -4 -4 -8 -10 -8 -12 0 -29 -17 -93
-92 -26 -31 -75 -75 -108 -98 -33 -23 -75 -58 -92 -78 -18 -20 -54 -59 -81
-87 -26 -27 -60 -66 -75 -85 -14 -19 -34 -41 -44 -48 -9 -7 -28 -34 -41 -60
-22 -42 -145 -173 -266 -282 -64 -58 -196 -145 -273 -180 -52 -24 -75 -41
-105 -82 -22 -29 -75 -87 -117 -128 -130 -126 -144 -140 -192 -201 -25 -32
-53 -60 -62 -61 -9 -1 -34 -2 -56 -2 l-40 -1 0 -52 c0 -52 -1 -54 -70 -121
-39 -37 -106 -114 -150 -171 -80 -104 -255 -291 -272 -291 -5 0 -17 -15 -28
-32 -46 -81 -264 -332 -303 -350 -16 -8 -38 -35 -53 -64 -45 -88 -209 -302
-356 -468 -29 -32 -53 -65 -53 -72 0 -8 -5 -14 -11 -14 -5 0 -16 -15 -24 -33
-8 -19 -21 -39 -29 -47 -9 -7 -16 -19 -16 -28 0 -12 -56 -90 -80 -112 -27 -24
-310 -434 -310 -449 0 -4 -15 -16 -33 -29 -24 -16 -38 -37 -50 -75 -13 -39
-32 -67 -78 -112 -33 -33 -72 -82 -86 -110 -14 -27 -87 -151 -163 -275 -126
-207 -179 -294 -205 -338 -6 -9 -28 -44 -49 -77 -22 -33 -49 -80 -60 -105 -12
-25 -41 -77 -64 -117 -23 -39 -42 -74 -42 -78 0 -4 -20 -35 -45 -70 -25 -35
-66 -107 -90 -159 -25 -53 -61 -118 -80 -144 -18 -26 -75 -129 -125 -227 -91
-181 -96 -189 -120 -235 -28 -52 -250 -499 -250 -504 0 -2 -13 -33 -29 -68
-16 -35 -46 -103 -66 -153 -21 -49 -45 -101 -55 -115 -10 -14 -21 -42 -25 -63
-4 -20 -11 -37 -15 -37 -10 0 -37 -58 -44 -92 -2 -14 -20 -58 -40 -98 -75
-150 -183 -411 -291 -705 -27 -71 -68 -179 -93 -240 -57 -141 -102 -273 -102
-300 0 -11 -9 -37 -20 -58 -11 -21 -18 -41 -16 -46 3 -4 -4 -20 -15 -37 -10
-16 -19 -41 -19 -55 0 -15 -11 -51 -24 -80 -29 -69 -122 -354 -191 -589 -20
-69 -45 -154 -56 -190 -10 -36 -21 -74 -24 -85 -2 -11 -29 -112 -60 -225 -45
-164 -123 -471 -140 -550 -2 -8 -11 -46 -20 -85 -9 -38 -19 -81 -21 -95 -3
-14 -11 -50 -19 -80 -12 -47 -99 -453 -111 -517 -5 -28 -4 -25 -47 -243 -19
-96 -38 -188 -41 -205 -23 -110 -36 -176 -42 -211 -4 -24 -66 -350 -80 -419
-60 -305 -64 -333 -79 -508 -2 -32 -7 -63 -10 -68 -4 -5 -8 -19 -11 -32 -2
-12 -6 -33 -9 -47 -3 -14 -10 -56 -16 -95 -5 -38 -12 -86 -15 -105 -3 -19 -7
-58 -9 -87 -2 -29 -7 -72 -11 -95 -3 -24 -7 -54 -9 -68 -4 -39 -16 -132 -20
-160 -2 -14 -7 -47 -10 -75 -3 -27 -7 -66 -10 -85 -4 -33 -12 -104 -21 -195
-2 -22 -7 -110 -10 -195 -3 -85 -10 -171 -14 -190 -18 -71 -23 -139 -24 -320
-1 -102 -6 -192 -11 -200 -13 -22 -15 -121 -20 -975 -3 -701 -2 -791 14 -893
9 -61 14 -117 10 -123 -4 -6 -5 -28 -4 -48 2 -20 6 -85 9 -146 7 -124 13 -215
21 -295 2 -30 7 -86 10 -125 3 -38 7 -92 10 -120 2 -27 7 -77 10 -110 8 -89
15 -156 20 -195 2 -19 7 -60 10 -90 3 -30 8 -66 10 -80 2 -14 7 -52 10 -85 3
-33 7 -71 9 -85 3 -14 7 -47 10 -75 3 -27 10 -84 16 -125 6 -41 13 -93 16
-115 3 -22 7 -52 10 -66 2 -15 6 -47 9 -70 3 -24 10 -69 15 -99 5 -30 12 -75
15 -100 4 -24 8 -47 10 -50 1 -3 6 -27 9 -55 6 -46 12 -86 22 -140 9 -49 24
-133 29 -165 3 -19 19 -102 35 -185 16 -82 32 -161 34 -175 3 -14 8 -36 11
-50 3 -14 8 -41 11 -60 3 -19 9 -51 14 -70 5 -19 11 -46 13 -60 3 -14 15 -72
27 -130 12 -58 23 -112 25 -120 2 -12 36 -153 50 -210 9 -37 44 -148 55 -175
6 -16 14 -52 17 -80 6 -63 47 -217 154 -585 10 -36 34 -119 53 -185 31 -108
75 -250 111 -360 7 -22 29 -85 50 -140 20 -55 44 -122 52 -150 41 -136 187
-554 222 -635 6 -14 38 -97 71 -185 34 -88 67 -173 74 -190 8 -16 33 -77 56
-135 46 -114 206 -487 265 -615 20 -44 46 -100 57 -125 11 -25 26 -56 33 -70
8 -14 34 -74 60 -134 25 -60 64 -135 85 -167 21 -32 57 -102 80 -156 40 -93
134 -286 177 -363 11 -19 48 -87 84 -150 35 -63 69 -123 74 -132 6 -9 29 -54
52 -99 24 -45 47 -87 51 -93 5 -6 20 -31 33 -56 13 -25 29 -52 35 -60 6 -8 24
-37 39 -65 15 -27 38 -68 51 -90 13 -22 35 -63 49 -92 15 -29 37 -63 50 -77
12 -13 25 -36 29 -51 4 -15 18 -37 31 -49 14 -13 25 -28 25 -35 0 -18 57 -91
65 -83 5 4 5 1 1 -6 -5 -8 8 -36 33 -73 23 -33 41 -63 41 -68 0 -5 7 -14 15
-21 9 -7 13 -15 11 -18 -3 -2 10 -23 28 -46 19 -22 44 -61 56 -86 13 -25 38
-65 57 -90 19 -25 52 -76 75 -115 62 -108 97 -159 225 -334 10 -13 31 -40 46
-60 16 -20 35 -50 42 -68 7 -17 32 -52 54 -76 23 -24 41 -49 41 -56 0 -6 15
-28 33 -48 19 -21 50 -65 70 -98 20 -33 55 -80 78 -105 23 -25 61 -74 85 -110
34 -52 217 -297 277 -370 14 -18 126 -158 144 -180 18 -23 177 -214 188 -226
6 -6 33 -37 60 -70 126 -148 233 -272 261 -304 150 -169 204 -228 291 -315 54
-55 113 -121 131 -146 17 -26 47 -56 66 -67 19 -11 46 -39 60 -61 15 -22 96
-109 183 -193 86 -84 220 -216 298 -293 285 -282 574 -544 903 -817 17 -15 32
-31 32 -37 0 -6 6 -11 13 -11 6 0 44 -31 84 -68 80 -75 79 -74 183 -157 430
-344 678 -534 851 -651 61 -41 113 -74 117 -74 4 0 14 -9 22 -20 8 -11 20 -20
26 -20 7 0 21 -11 31 -24 10 -13 33 -31 50 -40 18 -9 44 -27 59 -41 15 -14 38
-28 51 -31 13 -4 23 -10 23 -15 0 -5 11 -14 25 -19 14 -5 25 -14 25 -20 0 -6
20 -20 44 -30 24 -11 49 -27 56 -35 7 -8 18 -15 24 -15 7 0 32 -18 56 -41 25
-22 60 -47 78 -54 17 -8 32 -18 32 -23 0 -5 19 -17 42 -28 24 -10 47 -24 51
-31 4 -7 14 -13 22 -13 7 0 20 -6 27 -12 7 -7 29 -22 48 -32 19 -11 37 -22 40
-26 17 -21 619 -400 636 -400 2 0 79 -43 171 -96 93 -53 193 -110 223 -127 30
-17 96 -54 145 -82 107 -62 369 -197 475 -244 41 -18 86 -43 100 -56 30 -27
72 -49 154 -80 34 -13 125 -54 201 -92 200 -98 330 -157 437 -198 51 -19 101
-40 110 -45 71 -40 161 -81 189 -87 19 -3 50 -17 69 -29 19 -13 49 -26 65 -30
53 -13 90 -39 108 -78 15 -31 20 -36 33 -26 35 30 86 23 195 -29 59 -27 153
-64 210 -81 57 -18 154 -54 215 -80 129 -56 285 -112 364 -130 30 -6 91 -27
135 -45 44 -18 96 -35 115 -36 19 -2 56 -18 82 -35 31 -21 69 -36 113 -43 36
-7 125 -30 198 -53 72 -22 188 -55 257 -73 69 -18 177 -49 240 -69 130 -41
113 -37 277 -71 67 -14 142 -34 166 -44 25 -11 91 -29 148 -41 57 -11 122 -26
144 -32 22 -5 49 -12 60 -14 11 -2 78 -18 148 -35 71 -17 136 -32 145 -34 10
-2 82 -17 162 -33 137 -29 357 -66 445 -76 22 -2 67 -11 100 -19 68 -18 196
-45 240 -51 111 -15 210 -26 275 -32 41 -3 82 -10 90 -14 23 -12 100 -23 145
-21 22 0 56 -4 75 -10 34 -11 209 -30 262 -29 15 0 47 -4 70 -9 106 -24 354
-49 523 -53 44 -1 88 -5 98 -10 10 -5 43 -11 75 -13 170 -12 253 -16 567 -30
61 -3 148 -8 195 -11 47 -3 108 -7 135 -9 28 -1 84 -6 125 -10 50 -4 85 -3
105 5 17 7 59 11 95 10 36 -1 139 -4 230 -5 91 -2 181 -4 200 -6 19 -2 73 0
120 4 47 4 222 9 390 12 168 2 319 7 335 9 92 14 163 19 275 21 128 2 289 13
301 21 14 8 80 14 214 18 77 3 151 8 165 11 14 3 57 8 95 12 39 3 89 14 113
25 37 16 67 19 240 18 114 0 212 5 232 11 48 15 66 17 210 23 120 6 175 12
191 21 4 3 49 7 100 10 52 3 126 8 164 10 66 5 85 7 160 20 17 3 46 8 65 11
19 3 51 9 70 14 19 5 78 12 130 15 52 4 104 9 115 11 10 2 37 6 60 9 22 3 75
13 117 21 43 8 107 17 142 19 36 2 89 10 118 18 29 8 74 15 100 15 26 0 61 7
78 15 17 9 58 17 90 18 32 1 74 9 92 17 18 7 60 15 93 16 33 2 83 10 110 19
28 9 75 18 105 21 30 3 93 16 140 30 47 13 114 27 150 30 36 4 100 16 143 27
42 11 108 26 145 33 37 7 108 25 157 39 50 14 171 47 270 73 99 25 229 60 288
75 60 16 116 31 125 32 17 4 101 28 252 73 47 14 137 43 202 65 64 22 160 51
213 64 53 13 116 35 139 49 22 13 57 27 77 30 20 3 48 10 63 15 14 6 26 8 26
6 0 -8 262 86 355 128 50 22 110 44 133 48 61 12 462 163 597 224 17 8 59 26
95 40 77 32 108 45 175 75 27 12 59 23 71 25 12 1 86 34 165 72 79 39 178 87
220 106 78 36 250 97 274 97 7 0 22 11 32 25 11 16 127 79 318 174 308 153
537 276 590 315 17 13 48 29 70 36 22 7 54 23 70 35 17 12 41 26 55 30 14 4
40 21 58 36 18 16 37 29 42 29 5 0 15 6 22 13 7 7 33 20 58 30 61 23 189 97
269 155 37 27 98 64 136 84 118 60 144 76 335 203 102 68 212 138 245 155 33
18 76 43 95 57 55 41 150 146 151 168 6 171 30 203 160 213 50 3 75 0 103 -13
49 -24 95 -15 154 30 26 20 92 69 148 109 55 40 116 89 136 108 19 20 52 44
73 54 22 10 59 38 85 62 25 24 59 50 76 58 17 8 40 23 50 32 21 18 80 65 123
97 15 11 48 36 72 56 179 148 237 196 259 215 14 12 113 97 220 189 107 92
213 183 235 202 22 19 67 60 100 92 33 32 92 82 130 111 39 30 88 74 110 98
48 54 150 154 245 242 39 36 87 83 108 105 20 22 77 78 126 125 134 127 343
338 411 416 33 37 71 77 85 88 79 66 212 214 216 242 1 8 15 24 31 36 55 42
139 133 157 172 10 22 32 51 49 65 17 14 45 41 61 60 17 18 42 45 56 60 14 14
65 73 115 131 49 58 92 107 96 110 9 8 310 388 381 481 36 47 109 141 162 208
53 68 118 157 144 198 26 41 66 97 89 124 24 27 49 62 57 77 8 15 30 44 48 65
19 20 61 76 93 124 33 49 62 90 65 93 20 17 304 458 323 502 14 29 50 87 80
128 53 71 160 250 188 315 8 17 23 39 35 51 12 12 33 43 46 70 13 27 70 123
127 214 56 91 145 251 197 355 53 105 113 217 134 250 53 82 136 244 205 400
31 72 79 168 105 215 79 139 187 370 256 547 35 91 74 180 87 197 13 17 41 74
61 126 21 52 82 203 136 335 122 298 172 430 243 645 19 58 52 148 74 200 22
52 52 138 67 190 39 137 79 262 115 360 39 110 110 336 117 374 3 16 8 34 11
39 3 5 18 57 34 116 78 300 92 354 120 443 16 53 32 105 34 115 3 10 9 38 16
63 6 25 13 54 15 65 3 11 8 47 11 80 3 33 10 69 16 80 6 11 12 27 13 35 1 8 5
31 8 50 2 19 14 64 26 99 11 35 22 84 25 110 8 77 15 113 36 180 10 35 21 77
24 93 3 15 12 59 19 96 8 37 17 96 21 132 4 36 8 72 9 80 1 8 10 40 19 70 9
30 19 82 23 115 7 67 7 65 28 155 19 83 25 127 32 220 3 41 11 84 16 94 6 11
12 58 14 104 2 47 9 91 15 98 6 7 13 55 15 106 3 51 9 118 14 148 5 30 12 71
15 90 3 19 7 46 10 60 3 14 7 45 10 70 3 25 7 61 10 80 3 19 7 91 10 160 2 69
7 143 10 165 4 22 9 54 11 70 2 17 6 41 9 55 2 14 7 48 10 75 2 28 7 73 10
100 10 98 14 172 16 297 0 69 7 152 14 183 9 38 14 137 15 293 1 265 3 286 20
357 9 38 12 311 12 1156 0 986 -3 1205 -17 1259 -2 8 -7 67 -10 130 -7 144
-14 253 -20 305 -20 184 -34 297 -41 345 -3 14 -6 76 -8 138 -3 62 -7 125 -10
140 -3 15 -8 45 -10 67 -3 22 -13 90 -21 150 -9 61 -18 128 -21 150 -3 22 -7
47 -9 55 -2 8 -6 38 -10 65 -3 28 -17 118 -31 200 -30 178 -30 176 -39 240 -3
28 -8 61 -11 75 -2 14 -7 45 -10 70 -3 25 -10 63 -14 85 -5 22 -11 54 -15 72
-3 18 -10 44 -16 60 -5 15 -12 46 -15 68 -10 79 -36 212 -65 335 -17 69 -32
149 -33 177 -1 29 -9 60 -17 70 -8 10 -14 32 -14 48 1 17 -5 46 -13 65 -16 37
-17 40 -26 110 -9 71 -15 99 -43 190 -14 47 -51 189 -83 315 -31 127 -74 277
-94 335 -42 124 -37 105 -74 252 -17 64 -37 131 -46 150 -8 18 -22 60 -29 93
-8 33 -24 82 -36 108 -12 26 -20 51 -17 56 3 4 -3 24 -14 43 -10 20 -26 64
-35 99 -36 140 -170 520 -230 654 -7 16 -70 176 -139 355 -70 179 -130 334
-135 345 -5 11 -35 85 -66 165 -69 173 -163 374 -202 433 -16 23 -37 67 -47
97 -25 78 -30 88 -217 467 -179 361 -267 525 -383 713 -39 63 -80 138 -90 165
-24 64 -73 152 -91 162 -7 5 -41 62 -75 128 -86 166 -187 328 -371 590 -19 28
-68 106 -109 175 -40 69 -103 170 -139 225 -36 55 -68 105 -71 110 -3 6 -36
55 -75 109 -38 54 -77 108 -85 120 -15 22 -127 173 -142 191 -77 95 -155 199
-176 235 -39 67 -128 184 -166 218 -19 16 -37 40 -41 53 -8 26 -56 89 -122
159 -24 25 -43 50 -43 56 0 7 -17 27 -38 46 -21 19 -65 72 -97 119 -60 84
-153 196 -249 299 -28 31 -74 85 -102 120 -29 36 -85 97 -125 136 -41 38 -86
89 -102 112 -15 23 -32 42 -39 42 -6 0 -9 2 -6 5 2 3 -25 35 -61 73 -78 81
-147 155 -256 277 -125 140 -213 232 -305 319 -98 93 -175 170 -243 243 -26
28 -62 58 -80 66 -18 9 -40 28 -49 44 -22 38 -52 69 -118 123 -71 58 -224 211
-275 275 -22 27 -49 58 -60 68 -23 20 -90 57 -104 57 -5 0 -52 42 -105 93
-122 118 -288 267 -346 311 -25 18 -67 59 -94 90 -32 38 -55 56 -71 56 -22 0
-104 57 -134 94 -8 10 -32 26 -52 37 -21 10 -67 44 -101 75 -35 31 -169 136
-298 233 -129 97 -247 185 -261 196 -15 11 -48 36 -75 55 -26 19 -76 59 -112
88 -36 29 -81 60 -101 69 -20 9 -44 24 -53 32 -28 27 -43 38 -65 49 -11 6 -38
26 -60 44 -86 71 -101 81 -193 135 -52 31 -115 74 -139 95 -24 21 -49 38 -56
38 -9 0 -70 43 -145 103 -8 7 -44 27 -80 46 -36 19 -71 39 -79 45 -7 5 -21 15
-30 21 -10 5 -55 35 -102 66 -89 60 -118 77 -243 146 -44 24 -82 47 -85 51
-12 17 -100 72 -142 89 -24 9 -88 46 -142 81 -54 35 -146 89 -205 119 -59 30
-111 58 -116 64 -6 5 -17 9 -24 9 -8 0 -58 27 -111 59 -53 33 -118 69 -146 81
-59 27 -58 26 -119 67 -26 17 -67 37 -91 44 -25 7 -45 17 -45 21 0 3 -10 10
-22 14 -12 3 -49 23 -82 43 -74 44 -150 81 -276 133 -52 22 -106 48 -120 57
-23 16 -155 81 -164 81 -2 0 -53 23 -112 51 -275 130 -446 199 -490 199 -8 0
-14 5 -14 10 0 6 -12 15 -27 21 -27 9 -68 27 -123 54 -14 7 -38 15 -53 19 -15
4 -56 19 -90 35 -126 57 -366 150 -491 190 -71 23 -156 54 -190 71 -33 16 -72
31 -86 33 -14 1 -35 8 -47 15 -12 7 -37 14 -57 16 -19 3 -52 14 -73 24 -39 20
-172 70 -208 78 -11 3 -24 6 -30 8 -5 2 -28 6 -50 11 -22 4 -65 19 -95 33 -56
26 -70 30 -200 61 -41 10 -149 43 -240 74 -91 30 -235 72 -320 92 -85 20 -198
50 -251 66 -53 16 -127 36 -165 43 -38 7 -82 19 -98 25 -16 7 -52 13 -80 15
-28 2 -73 13 -101 24 -44 17 -71 23 -175 37 -14 1 -41 10 -61 18 -19 9 -64 18
-100 21 -35 2 -88 14 -117 25 -29 12 -81 24 -115 27 -34 3 -91 12 -126 21
-174 41 -277 59 -437 77 -34 4 -87 15 -119 25 -31 10 -87 19 -123 20 -37 1
-72 7 -78 12 -7 5 -56 14 -110 19 -55 5 -133 16 -174 24 -108 21 -194 32 -315
42 -38 3 -90 11 -115 18 -25 7 -85 14 -133 15 -91 2 -119 5 -247 21 -116 15
-149 19 -235 25 -44 4 -100 8 -125 11 -25 2 -130 6 -235 9 -180 5 -205 7 -265
21 -24 6 -1855 15 -1862 9z m2560 -468 l3 -29 -30 23 c-38 28 -39 41 -3 37 21
-2 28 -9 30 -31z m-5198 -677 c0 -5 -2 -10 -4 -10 -3 0 -8 5 -11 10 -3 6 -1
10 4 10 6 0 11 -4 11 -10z m5280 -535 c0 -11 -51 -24 -67 -17 -17 6 -13 8 60
21 4 0 7 -1 7 -4z m740 -170 c0 -8 -2 -15 -4 -15 -2 0 -6 7 -10 15 -3 8 -1 15
4 15 6 0 10 -7 10 -15z m-12851 -1675 c14 0 14 -2 1 -10 -23 -15 -56 -12 -71
7 -13 15 -11 16 20 10 18 -4 41 -7 50 -7z m21671 -1346 c0 -2 -14 -4 -31 -4
-16 0 -28 4 -25 9 5 8 56 3 56 -5z m-23740 -428 c0 -9 -7 -12 -21 -9 -16 4
-17 8 -7 14 19 13 28 11 28 -5z m16397 -368 c-3 -8 -6 -5 -6 6 -1 11 2 17 5
13 3 -3 4 -12 1 -19z m7368 -178 c3 -5 2 -10 -4 -10 -5 0 -13 5 -16 10 -3 6
-2 10 4 10 5 0 13 -4 16 -10z m-4605 -20 c0 -5 -5 -10 -11 -10 -5 0 -7 5 -4
10 3 6 8 10 11 10 2 0 4 -4 4 -10z m739 -1546 c3 -2 0 -9 -6 -15 -9 -9 -21 -6
-47 11 -20 12 -36 23 -36 25 0 4 83 -15 89 -21z m-20659 -144 c8 -5 12 -11 9
-14 -3 -3 -14 1 -25 9 -21 16 -8 20 16 5z m20471 -303 c-13 -12 -20 -15 -16
-7 14 26 28 41 33 35 3 -3 -5 -16 -17 -28z m8186 -759 c-3 -7 -5 -2 -5 12 0
14 2 19 5 13 2 -7 2 -19 0 -25z m-25096 -619 c18 -18 19 -50 3 -68 -5 -5 -4
-6 -31 47 -18 33 -19 42 -7 42 7 0 23 -9 35 -21z m-3930 -392 c-10 -9 -11 -8
-5 6 3 10 9 15 12 12 3 -3 0 -11 -7 -18z m14709 -37 c0 -5 -6 -10 -14 -10 -8
0 -18 5 -21 10 -3 6 3 10 14 10 12 0 21 -4 21 -10z m-6030 -335 c0 -9 -44 -23
-54 -17 -5 3 -1 9 10 13 23 9 44 11 44 4z m14923 -1192 c-7 -2 -19 -2 -25 0
-7 3 -2 5 12 5 14 0 19 -2 13 -5z m3822 -1393 c-3 -5 -14 -10 -23 -9 -14 0
-13 2 3 9 27 11 27 11 20 0z m-4149 -265 c-8 -8 -18 -15 -22 -15 -3 0 -1 7 6
15 7 8 17 15 22 15 5 0 3 -7 -6 -15z m-15147 -147 c-6 -18 -13 -39 -15 -46 -5
-17 -44 3 -44 23 0 14 46 55 61 55 4 0 3 -15 -2 -32z m21421 -1349 c0 -9 -54
-40 -67 -39 -10 1 -4 42 9 57 7 9 16 9 34 1 13 -6 24 -15 24 -19z m-16205 -19
c3 -6 -1 -7 -9 -4 -18 7 -21 14 -7 14 6 0 13 -4 16 -10z m4065 -57 c0 -10 -20
-40 -20 -31 0 3 -3 13 -6 22 -4 11 -1 16 10 16 9 0 16 -3 16 -7z m11011 -260
c13 -16 12 -17 -3 -4 -17 13 -22 21 -14 21 2 0 10 -8 17 -17z m-9033 -158 c-3
-3 -9 2 -12 12 -6 14 -5 15 5 6 7 -7 10 -15 7 -18z m-16915 -260 c-3 -9 -8
-14 -10 -11 -3 3 -2 9 2 15 9 16 15 13 8 -4z m-3878 -205 c-3 -5 -12 -10 -18
-10 -7 0 -6 4 3 10 19 12 23 12 15 0z m33128 -508 c28 -24 20 -33 -28 -31 -25
2 -45 4 -45 6 0 2 7 15 16 28 16 25 24 25 57 -3z m-24964 -633 c-28 -24 -65
-24 -79 0 -5 11 -10 21 -10 23 0 2 25 1 55 0 l56 -4 -22 -19z m-6705 -1143
c-6 -16 -24 -23 -24 -8 0 10 22 33 27 28 2 -2 1 -11 -3 -20z m24389 -506 c10
-16 15 -30 12 -30 -15 0 -45 22 -55 40 -18 34 23 24 43 -10z m-22768 -420 c3
-5 1 -10 -4 -10 -6 0 -11 5 -11 10 0 6 2 10 4 10 3 0 8 -4 11 -10z m25144
-123 c1 -5 -11 -7 -26 -5 -27 3 -58 43 -47 60 6 9 72 -41 73 -55z m-28729
-769 c0 -19 -2 -20 -10 -8 -13 19 -13 30 0 30 6 0 10 -10 10 -22z m19510 -865
c0 -5 -4 -14 -9 -21 -7 -11 -9 -11 -14 1 -3 8 -3 18 0 21 9 8 23 7 23 -1z
m8250 -1393 c0 -5 -2 -10 -4 -10 -3 0 -8 5 -11 10 -3 6 -1 10 4 10 6 0 11 -4
11 -10z m-5080 -25 c0 -2 -10 -9 -22 -15 -22 -11 -22 -10 -4 4 21 17 26 19 26
11z m-655 -495 c3 -6 -1 -7 -9 -4 -18 7 -21 14 -7 14 6 0 13 -4 16 -10z
m-26155 -314 c0 -12 -5 -7 -19 24 -11 24 -11 24 3 6 9 -11 16 -24 16 -30z
m34048 -47 c-30 -8 -39 1 -31 29 l6 23 24 -23 25 -23 -24 -6z m-16445 -59 c-3
-12 -8 -19 -11 -16 -5 6 5 36 12 36 2 0 2 -9 -1 -20z m-2818 -1140 c-16 -16
-30 -29 -31 -27 -9 8 10 47 25 50 33 9 34 6 6 -23z m7290 -400 c-3 -5 -12 -10
-18 -10 -7 0 -6 4 3 10 19 12 23 12 15 0z m7702 -416 c-3 -3 -12 -4 -19 -1 -8
3 -5 6 6 6 11 1 17 -2 13 -5z m-2407 -24 c0 -5 -7 -10 -16 -10 -8 0 -12 5 -9
10 3 6 10 10 16 10 5 0 9 -4 9 -10z m-22963 -476 c-3 -3 -12 -4 -19 -1 -8 3
-5 6 6 6 11 1 17 -2 13 -5z m23653 -339 c0 -8 -10 -19 -21 -26 -21 -11 -21
-11 -3 15 22 30 24 31 24 11z m-7770 -39 c0 -3 -4 -8 -10 -11 -5 -3 -10 -1
-10 4 0 6 5 11 10 11 6 0 10 -2 10 -4z m-1720 -40 c0 -2 -9 -6 -20 -9 -11 -3
-18 -1 -14 4 5 9 34 13 34 5z m4060 -1081 c-7 -8 -17 -12 -23 -8 -6 4 -3 9 9
14 27 11 28 11 14 -6z m13834 -70 c7 -28 6 -29 -7 -10 -8 10 -12 25 -10 33 7
16 9 14 17 -23z m273 -117 c-3 -7 -5 -2 -5 12 0 14 2 19 5 13 2 -7 2 -19 0
-25z m-9682 -428 c2 -23 -20 -27 -28 -6 -6 14 13 40 22 31 2 -3 5 -14 6 -25z
m-14762 -745 c-3 -9 -8 -14 -10 -11 -3 3 -2 9 2 15 9 16 15 13 8 -4z m7872
-175 c-3 -5 -14 -10 -23 -10 -15 0 -15 2 -2 10 20 13 33 13 25 0z m2505 -195
c-7 -9 -15 -13 -18 -10 -3 2 1 11 8 20 7 9 15 13 18 10 3 -2 -1 -11 -8 -20z
m-20661 -211 c2 -2 -4 -13 -14 -24 l-19 -21 -18 23 c-10 13 -18 26 -18 30 0 6
61 0 69 -8z m-213 -172 c-22 -5 -30 3 -21 18 5 8 11 7 22 -2 15 -12 14 -13 -1
-16z m-271 -82 c3 -5 1 -10 -4 -10 -6 0 -11 5 -11 10 0 6 2 10 4 10 3 0 8 -4
11 -10z m3263 -381 c2 -30 1 -31 -25 -24 -38 9 -39 12 -18 35 26 29 40 25 43
-11z m157 -130 c11 -17 2 -18 -19 -3 -17 12 -17 14 -4 14 9 0 20 -5 23 -11z
m-1598 -1281 c-3 -8 -6 -5 -6 6 -1 11 2 17 5 13 3 -3 4 -12 1 -19z m24538
-288 c3 -5 2 -10 -4 -10 -5 0 -13 5 -16 10 -3 6 -2 10 4 10 5 0 13 -4 16 -10z
m-2401 -76 c3 -8 2 -12 -4 -9 -6 3 -10 10 -10 16 0 14 7 11 14 -7z m-19187
-1506 c-3 -8 -6 -5 -6 6 -1 11 2 17 5 13 3 -3 4 -12 1 -19z m12003 -298 c0 -5
-5 -10 -11 -10 -5 0 -7 5 -4 10 3 6 8 10 11 10 2 0 4 -4 4 -10z m-11662 -1415
c-3 -3 -9 2 -12 12 -6 14 -5 15 5 6 7 -7 10 -15 7 -18z m21932 -1460 c0 -8 -2
-15 -4 -15 -2 0 -6 7 -10 15 -3 8 -1 15 4 15 6 0 10 -7 10 -15z m-16125 -1805
c3 -5 1 -10 -4 -10 -6 0 -11 5 -11 10 0 6 2 10 4 10 3 0 8 -4 11 -10z m5520
-150 c3 -6 -1 -7 -9 -4 -18 7 -21 14 -7 14 6 0 13 -4 16 -10z m-139 -635 c-4
-14 -13 -25 -22 -25 -13 0 -13 4 2 30 21 34 29 32 20 -5z m-3816 -385 c-27
-20 -36 -19 -27 5 4 8 17 15 29 15 l23 0 -25 -20z"/>
</g>
</svg>
